<svg width="16" height="17" viewBox="0 0 16 17" fill="none" xmlns="http://www.w3.org/2000/svg">
<path d="M8.68363 6.61017C8.51637 6.25148 8.94911 5.93395 9.23218 6.21054C9.91691 6.87961 10.4786 7.50183 10.6617 7.89448C11.2453 9.14583 10.7039 10.6333 9.45252 11.2168C8.20116 11.8003 6.71371 11.2589 6.1302 10.0076C5.93349 9.58573 5.81472 8.65875 5.74369 7.61515C5.65167 6.26328 5.60567 5.58734 5.86422 5.42922C5.94695 5.37862 6.05051 5.35194 6.14739 5.35626C6.45016 5.36978 6.7415 5.99455 7.32417 7.2441C7.49923 7.6195 7.94546 7.78192 8.32087 7.60686C8.69627 7.43181 8.85869 6.98557 8.68363 6.61017Z" stroke="#E59500"/>
<path d="M8.99993 11.428L8.74202 11.1858C8.29487 10.7659 8.10804 10.138 8.25289 9.54199V9.54199C8.32654 9.23897 8.6622 9.08245 8.94167 9.22081V9.22081C9.49138 9.49297 9.85228 10.0397 9.8865 10.6521L9.90624 11.0054" stroke="#E59500"/>
</svg>
