<svg width="1120" height="540" viewBox="0 0 1120 540" fill="none" xmlns="http://www.w3.org/2000/svg">
<g clip-path="url(#clip0_362_1240)">
<rect width="1120" height="540" rx="32" fill="#632123"/>
<path d="M732.88 393.84C748.88 409.2 758.48 431.6 758.48 455.92V550C758.48 550 727.76 530.8 676.56 530.8C661.2 530.8 643.28 532.72 623.44 537.84C581.2 548.72 503.76 550 503.76 550H437.2C437.2 550 484.56 469.36 484.56 290.16C484.56 265.84 483.92 240.24 482 212.08C471.12 60.4 437.2 0.239975 437.2 0.239975H557.52C596.56 0.239975 634.32 46.32 634.32 124.4C634.32 139.12 633.04 155.12 629.84 172.4C620.24 228.08 581.84 270.32 526.8 372.08C516.56 390.64 485.84 447.6 485.2 475.76V480.88C485.2 510.96 496.08 528.88 514 528.88C522.96 528.88 533.84 524.4 546 513.52C558.16 502.64 575.44 470 577.36 464.24C618.32 370.16 670.8 367.6 670.8 367.6C695.12 367.6 716.88 377.84 732.88 393.84ZM968.46 550H779.02C779.02 550 837.9 456.56 837.9 352.24C837.9 316.4 830.86 279.28 812.3 244.72C796.3 215.28 786.06 187.12 779.02 160.88C770.7 129.52 768.14 100.72 768.14 77.04C768.14 29.68 779.02 0.239975 779.02 0.239975H928.14C928.14 0.239975 850.06 86 850.06 215.92C850.06 226.8 850.7 237.68 851.98 248.56C855.18 281.84 869.9 309.36 883.34 329.2C939.66 413.68 968.46 466.8 968.46 550ZM1239.84 301.68H1410.72C1376.16 336.88 1364.64 378.48 1364.64 418.16C1364.64 487.92 1400.48 550 1400.48 550H1008.16C1008.16 550 1004.96 531.44 1004.96 503.28C1004.96 433.52 1022.88 304.24 1143.2 243.44C1203.36 213.36 1234.72 169.2 1234.72 128.88C1234.72 106.48 1225.12 85.36 1205.28 67.44C1168.16 33.52 1109.28 32.24 1083.68 32.24H1070.24C1136.8 46.96 1161.76 86.64 1169.44 123.12C1170.08 127.6 1170.72 132.08 1170.72 135.92C1170.72 168.56 1143.83 196.72 1109.28 196.72H994.075C1009.44 168.56 1014.56 137.84 1014.56 108.4C1014.56 50.16 994.075 0.239975 994.075 0.239975H1410.72C1401.76 153.2 1232.16 210.8 1178.4 247.92C1120.8 287.6 1100.32 331.76 1100.32 372.72C1100.32 407.28 1115.04 439.92 1134.88 464.24C1174.56 514.16 1257.12 523.76 1257.12 523.76C1178.4 477.68 1159.2 424.56 1159.2 386.16C1159.2 377.2 1159.84 368.24 1161.76 361.2C1170.08 326 1203.36 301.68 1239.84 301.68ZM1796.81 285.68C1789.77 305.52 1787.21 327.28 1787.21 350.32C1787.21 443.76 1834.57 550 1834.57 550C1834.57 550 1790.41 530.16 1738.57 530.16C1721.29 530.16 1703.37 532.08 1685.45 537.84C1675.85 540.4 1667.53 543.6 1659.21 545.52C1643.85 548.72 1628.49 550 1612.49 550C1535.69 550 1440.33 496.24 1440.33 347.12C1440.33 302.32 1449.29 249.2 1469.13 186.48C1477.45 161.52 1481.29 133.36 1481.29 105.84C1481.29 66.8 1472.97 28.4 1454.41 0.239975H1572.81C1615.05 0.239975 1676.49 45.04 1676.49 116.72C1676.49 158.96 1654.73 210.8 1595.85 267.76C1538.89 322.8 1515.2 379.12 1515.2 425.2C1515.2 464.88 1533.13 496.88 1562.57 512.24C1581.77 521.84 1598.41 525.04 1612.49 525.04C1639.37 525.04 1655.37 514.16 1655.37 514.16C1650.89 509.04 1619.53 471.28 1619.53 422C1619.53 393.84 1629.13 361.84 1659.85 329.84C1726.41 258.8 1794.89 233.84 1794.89 156.4C1794.89 151.28 1794.25 145.52 1793.61 139.12C1783.37 52.08 1693.13 4.71999 1680.33 0.239975H1789.77C1798.09 20.08 1805.13 43.12 1811.53 67.44C1817.93 94.96 1821.12 122.48 1821.12 150C1821.12 196.08 1812.17 242.16 1796.81 285.68Z" fill="white" fill-opacity="0.24"/>
<path d="M486.04 275.72C489.04 278.6 490.84 282.8 490.84 287.36V305C490.84 305 485.08 301.4 475.48 301.4C472.6 301.4 469.24 301.76 465.52 302.72C457.6 304.76 443.08 305 443.08 305H430.6C430.6 305 439.48 289.88 439.48 256.28C439.48 251.72 439.36 246.92 439 241.64C436.96 213.2 430.6 201.92 430.6 201.92H453.16C460.48 201.92 467.56 210.56 467.56 225.2C467.56 227.96 467.32 230.96 466.72 234.2C464.92 244.64 457.72 252.56 447.4 271.64C445.48 275.12 439.72 285.8 439.6 291.08V292.04C439.6 297.68 441.64 301.04 445 301.04C446.68 301.04 448.72 300.2 451 298.16C453.28 296.12 456.52 290 456.88 288.92C464.56 271.28 474.4 270.8 474.4 270.8C478.96 270.8 483.04 272.72 486.04 275.72ZM530.211 305H494.691C494.691 305 505.731 287.48 505.731 267.92C505.731 261.2 504.411 254.24 500.931 247.76C497.931 242.24 496.011 236.96 494.691 232.04C493.131 226.16 492.651 220.76 492.651 216.32C492.651 207.44 494.691 201.92 494.691 201.92H522.651C522.651 201.92 508.011 218 508.011 242.36C508.011 244.4 508.131 246.44 508.371 248.48C508.971 254.72 511.731 259.88 514.251 263.6C524.811 279.44 530.211 289.4 530.211 305ZM581.094 258.44H613.134C606.654 265.04 604.494 272.84 604.494 280.28C604.494 293.36 611.214 305 611.214 305H537.654C537.654 305 537.054 301.52 537.054 296.24C537.054 283.16 540.414 258.92 562.974 247.52C574.254 241.88 580.134 233.6 580.134 226.04C580.134 221.84 578.334 217.88 574.614 214.52C567.654 208.16 556.614 207.92 551.814 207.92H549.294C561.774 210.68 566.454 218.12 567.894 224.96C568.014 225.8 568.134 226.64 568.134 227.36C568.134 233.48 563.094 238.76 556.614 238.76H535.014C537.894 233.48 538.854 227.72 538.854 222.2C538.854 211.28 535.014 201.92 535.014 201.92H613.134C611.454 230.6 579.654 241.4 569.574 248.36C558.774 255.8 554.934 264.08 554.934 271.76C554.934 278.24 557.694 284.36 561.414 288.92C568.854 298.28 584.334 300.08 584.334 300.08C569.574 291.44 565.974 281.48 565.974 274.28C565.974 272.6 566.094 270.92 566.454 269.6C568.014 263 574.254 258.44 581.094 258.44ZM685.526 255.44C684.206 259.16 683.726 263.24 683.726 267.56C683.726 285.08 692.606 305 692.606 305C692.606 305 684.326 301.28 674.606 301.28C671.366 301.28 668.006 301.64 664.646 302.72C662.846 303.2 661.286 303.8 659.726 304.16C656.846 304.76 653.966 305 650.966 305C636.566 305 618.686 294.92 618.686 266.96C618.686 258.56 620.366 248.6 624.086 236.84C625.646 232.16 626.366 226.88 626.366 221.72C626.366 214.4 624.806 207.2 621.326 201.92H643.526C651.446 201.92 662.966 210.32 662.966 223.76C662.966 231.68 658.886 241.4 647.846 252.08C637.166 262.4 632.726 272.96 632.726 281.6C632.726 289.04 636.086 295.04 641.606 297.92C645.206 299.72 648.326 300.32 650.966 300.32C656.006 300.32 659.006 298.28 659.006 298.28C658.166 297.32 652.286 290.24 652.286 281C652.286 275.72 654.086 269.72 659.846 263.72C672.326 250.4 685.166 245.72 685.166 231.2C685.166 230.24 685.046 229.16 684.926 227.96C683.006 211.64 666.086 202.76 663.686 201.92H684.206C685.766 205.64 687.086 209.96 688.286 214.52C689.486 219.68 690.086 224.84 690.086 230C690.086 238.64 688.406 247.28 685.526 255.44Z" fill="white"/>
<path d="M73.208 411V388.6H77.528V407.64H87.352V411H73.208ZM91.0518 411V394.872H95.3718V411H91.0518ZM93.2278 392.664C92.4598 392.664 91.8198 392.44 91.3078 391.992C90.8171 391.523 90.5718 390.936 90.5718 390.232C90.5718 389.528 90.8171 388.952 91.3078 388.504C91.8198 388.035 92.4598 387.8 93.2278 387.8C94.0171 387.8 94.6571 388.035 95.1478 388.504C95.6598 388.952 95.9158 389.528 95.9158 390.232C95.9158 390.936 95.6598 391.523 95.1478 391.992C94.6571 392.44 94.0171 392.664 93.2278 392.664ZM98.681 411V407.544L106.809 398.456H98.777V394.872H111.769V398.36L103.577 407.416H111.929V411H98.681ZM121.441 411.384C120.139 411.384 119.019 411.117 118.081 410.584C117.163 410.029 116.459 409.229 115.969 408.184C115.478 407.117 115.233 405.805 115.233 404.248V394.872H119.553V403.8C119.553 405.101 119.819 406.083 120.353 406.744C120.907 407.405 121.75 407.736 122.881 407.736C123.606 407.736 124.246 407.576 124.801 407.256C125.355 406.915 125.793 406.435 126.113 405.816C126.454 405.176 126.625 404.397 126.625 403.48V394.872H130.913V411H127.137L126.785 408.376C126.315 409.293 125.622 410.029 124.705 410.584C123.787 411.117 122.699 411.384 121.441 411.384ZM142.771 411V388.6H157.363V392.088H147.091V398.072H155.315V401.464H147.091V411H142.771ZM164.521 411.384C163.177 411.384 162.067 411.171 161.193 410.744C160.318 410.296 159.667 409.709 159.241 408.984C158.835 408.237 158.633 407.416 158.633 406.52C158.633 405.539 158.878 404.675 159.369 403.928C159.881 403.181 160.638 402.595 161.641 402.168C162.665 401.741 163.945 401.528 165.481 401.528H169.481C169.481 400.739 169.374 400.088 169.161 399.576C168.947 399.043 168.617 398.648 168.169 398.392C167.721 398.136 167.123 398.008 166.377 398.008C165.566 398.008 164.873 398.189 164.297 398.552C163.742 398.893 163.401 399.427 163.273 400.152H159.081C159.187 399 159.561 398.008 160.201 397.176C160.862 396.323 161.726 395.661 162.793 395.192C163.881 394.723 165.086 394.488 166.409 394.488C167.923 394.488 169.235 394.744 170.345 395.256C171.454 395.768 172.307 396.504 172.905 397.464C173.502 398.424 173.801 399.608 173.801 401.016V411H170.153L169.673 408.536C169.438 408.963 169.161 409.347 168.841 409.688C168.521 410.029 168.147 410.328 167.721 410.584C167.294 410.84 166.814 411.032 166.281 411.16C165.747 411.309 165.161 411.384 164.521 411.384ZM165.545 408.056C166.099 408.056 166.59 407.96 167.017 407.768C167.465 407.555 167.849 407.277 168.169 406.936C168.489 406.573 168.734 406.168 168.905 405.72C169.097 405.251 169.225 404.749 169.289 404.216V404.184H165.993C165.331 404.184 164.787 404.269 164.361 404.44C163.955 404.589 163.657 404.813 163.465 405.112C163.273 405.411 163.177 405.752 163.177 406.136C163.177 406.563 163.273 406.915 163.465 407.192C163.657 407.469 163.934 407.683 164.297 407.832C164.659 407.981 165.075 408.056 165.545 408.056ZM184.423 411.384C182.951 411.384 181.671 411.149 180.583 410.68C179.495 410.211 178.641 409.56 178.023 408.728C177.404 407.896 177.052 406.957 176.967 405.912H181.255C181.361 406.317 181.543 406.691 181.799 407.032C182.055 407.352 182.396 407.608 182.823 407.8C183.249 407.992 183.761 408.088 184.359 408.088C184.935 408.088 185.404 408.013 185.767 407.864C186.129 407.693 186.396 407.469 186.567 407.192C186.759 406.915 186.855 406.627 186.855 406.328C186.855 405.88 186.727 405.539 186.471 405.304C186.215 405.048 185.841 404.845 185.351 404.696C184.86 404.547 184.263 404.397 183.559 404.248C182.791 404.099 182.033 403.917 181.287 403.704C180.561 403.469 179.911 403.181 179.335 402.84C178.759 402.499 178.3 402.061 177.959 401.528C177.617 400.995 177.447 400.333 177.447 399.544C177.447 398.584 177.703 397.731 178.215 396.984C178.727 396.216 179.473 395.608 180.455 395.16C181.436 394.712 182.62 394.488 184.007 394.488C185.948 394.488 187.484 394.925 188.615 395.8C189.745 396.675 190.417 397.88 190.631 399.416H186.567C186.439 398.925 186.151 398.541 185.703 398.264C185.276 397.965 184.7 397.816 183.975 397.816C183.207 397.816 182.62 397.955 182.215 398.232C181.809 398.509 181.607 398.872 181.607 399.32C181.607 399.619 181.735 399.885 181.991 400.12C182.268 400.355 182.652 400.557 183.143 400.728C183.633 400.877 184.231 401.027 184.935 401.176C186.172 401.432 187.26 401.731 188.199 402.072C189.137 402.392 189.873 402.861 190.407 403.48C190.94 404.077 191.207 404.952 191.207 406.104C191.207 407.128 190.929 408.045 190.375 408.856C189.82 409.645 189.031 410.264 188.007 410.712C187.004 411.16 185.809 411.384 184.423 411.384ZM194.862 411V387.96H199.182V397.272C199.715 396.44 200.419 395.768 201.294 395.256C202.19 394.744 203.225 394.488 204.398 394.488C205.742 394.488 206.873 394.776 207.79 395.352C208.707 395.907 209.401 396.717 209.87 397.784C210.339 398.851 210.574 400.173 210.574 401.752V411H206.286V402.136C206.286 400.856 206.019 399.875 205.486 399.192C204.953 398.488 204.11 398.136 202.958 398.136C202.254 398.136 201.614 398.307 201.038 398.648C200.462 398.989 200.003 399.491 199.662 400.152C199.342 400.792 199.182 401.56 199.182 402.456V411H194.862ZM214.739 411V394.872H219.059V411H214.739ZM216.915 392.664C216.147 392.664 215.507 392.44 214.995 391.992C214.505 391.523 214.259 390.936 214.259 390.232C214.259 389.528 214.505 388.952 214.995 388.504C215.507 388.035 216.147 387.8 216.915 387.8C217.705 387.8 218.345 388.035 218.835 388.504C219.347 388.952 219.603 389.528 219.603 390.232C219.603 390.936 219.347 391.523 218.835 391.992C218.345 392.44 217.705 392.664 216.915 392.664ZM231.041 411.384C229.505 411.384 228.118 411.032 226.881 410.328C225.665 409.603 224.694 408.611 223.969 407.352C223.265 406.072 222.913 404.611 222.913 402.968C222.913 401.283 223.265 399.811 223.969 398.552C224.694 397.272 225.675 396.28 226.913 395.576C228.15 394.851 229.537 394.488 231.073 394.488C232.63 394.488 234.017 394.851 235.233 395.576C236.47 396.28 237.441 397.272 238.145 398.552C238.87 399.811 239.233 401.272 239.233 402.936C239.233 404.6 238.87 406.072 238.145 407.352C237.441 408.611 236.47 409.603 235.233 410.328C233.995 411.032 232.598 411.384 231.041 411.384ZM231.041 407.64C231.766 407.64 232.406 407.469 232.961 407.128C233.537 406.787 233.985 406.264 234.305 405.56C234.646 404.856 234.817 403.981 234.817 402.936C234.817 401.891 234.646 401.027 234.305 400.344C233.985 399.64 233.537 399.117 232.961 398.776C232.406 398.413 231.777 398.232 231.073 398.232C230.39 398.232 229.761 398.413 229.185 398.776C228.609 399.117 228.15 399.64 227.809 400.344C227.489 401.027 227.329 401.891 227.329 402.936C227.329 403.981 227.489 404.856 227.809 405.56C228.15 406.264 228.598 406.787 229.153 407.128C229.729 407.469 230.358 407.64 231.041 407.64ZM242.956 411V394.872H246.764L247.084 397.496C247.574 396.6 248.268 395.875 249.164 395.32C250.081 394.765 251.169 394.488 252.428 394.488C253.772 394.488 254.902 394.765 255.82 395.32C256.737 395.875 257.43 396.685 257.9 397.752C258.39 398.819 258.636 400.131 258.636 401.688V411H254.348V402.104C254.348 400.824 254.07 399.843 253.516 399.16C252.982 398.477 252.15 398.136 251.02 398.136C250.294 398.136 249.644 398.307 249.068 398.648C248.513 398.989 248.076 399.48 247.756 400.12C247.436 400.739 247.276 401.496 247.276 402.392V411H242.956ZM270.333 411V388.6H279.517C281.074 388.6 282.386 388.845 283.453 389.336C284.52 389.827 285.32 390.509 285.853 391.384C286.408 392.237 286.685 393.229 286.685 394.36C286.685 395.491 286.44 396.44 285.949 397.208C285.458 397.976 284.808 398.573 283.997 399C283.208 399.405 282.333 399.64 281.373 399.704L281.885 399.352C282.909 399.395 283.816 399.672 284.605 400.184C285.416 400.675 286.045 401.336 286.493 402.168C286.962 403 287.197 403.907 287.197 404.888C287.197 406.083 286.909 407.139 286.333 408.056C285.757 408.973 284.925 409.699 283.837 410.232C282.749 410.744 281.416 411 279.837 411H270.333ZM274.653 407.48H279.133C280.306 407.48 281.213 407.213 281.853 406.68C282.493 406.147 282.813 405.379 282.813 404.376C282.813 403.373 282.482 402.595 281.821 402.04C281.16 401.464 280.242 401.176 279.069 401.176H274.653V407.48ZM274.653 397.944H278.813C279.944 397.944 280.797 397.688 281.373 397.176C281.97 396.664 282.269 395.939 282.269 395C282.269 394.083 281.97 393.368 281.373 392.856C280.797 392.323 279.933 392.056 278.781 392.056H274.653V397.944ZM290.643 411V394.872H294.483L294.899 397.848C295.283 397.144 295.763 396.547 296.339 396.056C296.937 395.565 297.609 395.181 298.355 394.904C299.123 394.627 299.966 394.488 300.883 394.488V399.064H299.411C298.771 399.064 298.174 399.139 297.619 399.288C297.086 399.437 296.617 399.683 296.211 400.024C295.806 400.344 295.497 400.792 295.283 401.368C295.07 401.944 294.963 402.669 294.963 403.544V411H290.643ZM309.177 411.384C307.833 411.384 306.724 411.171 305.849 410.744C304.974 410.296 304.324 409.709 303.897 408.984C303.492 408.237 303.289 407.416 303.289 406.52C303.289 405.539 303.534 404.675 304.025 403.928C304.537 403.181 305.294 402.595 306.297 402.168C307.321 401.741 308.601 401.528 310.137 401.528H314.137C314.137 400.739 314.03 400.088 313.817 399.576C313.604 399.043 313.273 398.648 312.825 398.392C312.377 398.136 311.78 398.008 311.033 398.008C310.222 398.008 309.529 398.189 308.953 398.552C308.398 398.893 308.057 399.427 307.929 400.152H303.737C303.844 399 304.217 398.008 304.857 397.176C305.518 396.323 306.382 395.661 307.449 395.192C308.537 394.723 309.742 394.488 311.065 394.488C312.58 394.488 313.892 394.744 315.001 395.256C316.11 395.768 316.964 396.504 317.561 397.464C318.158 398.424 318.457 399.608 318.457 401.016V411H314.809L314.329 408.536C314.094 408.963 313.817 409.347 313.497 409.688C313.177 410.029 312.804 410.328 312.377 410.584C311.95 410.84 311.47 411.032 310.937 411.16C310.404 411.309 309.817 411.384 309.177 411.384ZM310.201 408.056C310.756 408.056 311.246 407.96 311.673 407.768C312.121 407.555 312.505 407.277 312.825 406.936C313.145 406.573 313.39 406.168 313.561 405.72C313.753 405.251 313.881 404.749 313.945 404.216V404.184H310.649C309.988 404.184 309.444 404.269 309.017 404.44C308.612 404.589 308.313 404.813 308.121 405.112C307.929 405.411 307.833 405.752 307.833 406.136C307.833 406.563 307.929 406.915 308.121 407.192C308.313 407.469 308.59 407.683 308.953 407.832C309.316 407.981 309.732 408.056 310.201 408.056ZM322.487 411V394.872H326.295L326.615 397.496C327.106 396.6 327.799 395.875 328.695 395.32C329.612 394.765 330.7 394.488 331.959 394.488C333.303 394.488 334.434 394.765 335.351 395.32C336.268 395.875 336.962 396.685 337.431 397.752C337.922 398.819 338.167 400.131 338.167 401.688V411H333.879V402.104C333.879 400.824 333.602 399.843 333.047 399.16C332.514 398.477 331.682 398.136 330.551 398.136C329.826 398.136 329.175 398.307 328.599 398.648C328.044 398.989 327.607 399.48 327.287 400.12C326.967 400.739 326.807 401.496 326.807 402.392V411H322.487ZM349.405 411.384C347.933 411.384 346.61 411.021 345.437 410.296C344.285 409.571 343.378 408.568 342.717 407.288C342.056 406.008 341.725 404.568 341.725 402.968C341.725 401.325 342.056 399.875 342.717 398.616C343.4 397.336 344.328 396.333 345.501 395.608C346.696 394.861 348.029 394.488 349.501 394.488C350.653 394.488 351.666 394.701 352.541 395.128C353.416 395.555 354.12 396.163 354.653 396.952V387.96H358.973V411H355.133L354.653 408.792C354.333 409.24 353.928 409.667 353.437 410.072C352.968 410.477 352.402 410.797 351.741 411.032C351.08 411.267 350.301 411.384 349.405 411.384ZM350.429 407.608C351.282 407.608 352.029 407.416 352.669 407.032C353.33 406.627 353.842 406.072 354.205 405.368C354.568 404.664 354.749 403.853 354.749 402.936C354.749 402.019 354.568 401.208 354.205 400.504C353.842 399.8 353.33 399.256 352.669 398.872C352.029 398.467 351.282 398.264 350.429 398.264C349.618 398.264 348.882 398.467 348.221 398.872C347.56 399.256 347.037 399.8 346.653 400.504C346.29 401.208 346.109 402.008 346.109 402.904C346.109 403.843 346.29 404.664 346.653 405.368C347.037 406.072 347.549 406.627 348.189 407.032C348.85 407.416 349.597 407.608 350.429 407.608Z" fill="#FDFFFC"/>
<path d="M72.872 447V430.2H78.512C79.696 430.2 80.672 430.392 81.44 430.776C82.208 431.16 82.776 431.672 83.144 432.312C83.528 432.952 83.72 433.664 83.72 434.448C83.72 435.312 83.528 436.032 83.144 436.608C82.776 437.184 82.288 437.624 81.68 437.928C81.088 438.232 80.464 438.424 79.808 438.504L80.12 438.264C80.824 438.28 81.48 438.472 82.088 438.84C82.696 439.208 83.184 439.704 83.552 440.328C83.92 440.936 84.104 441.632 84.104 442.416C84.104 443.248 83.896 444.016 83.48 444.72C83.08 445.408 82.48 445.96 81.68 446.376C80.88 446.792 79.88 447 78.68 447H72.872ZM74.552 445.584H78.56C79.776 445.584 80.712 445.296 81.368 444.72C82.04 444.144 82.376 443.352 82.376 442.344C82.376 441.336 82.024 440.536 81.32 439.944C80.632 439.336 79.688 439.032 78.488 439.032H74.552V445.584ZM74.552 437.64H78.464C79.6 437.64 80.472 437.368 81.08 436.824C81.688 436.28 81.992 435.544 81.992 434.616C81.992 433.72 81.696 433 81.104 432.456C80.512 431.896 79.608 431.616 78.392 431.616H74.552V437.64ZM87.0009 447V434.904H88.5369L88.6569 437.232C88.9129 436.672 89.2569 436.2 89.6889 435.816C90.1209 435.432 90.6409 435.136 91.2489 434.928C91.8569 434.72 92.5449 434.616 93.3129 434.616V436.368H92.6649C92.1529 436.368 91.6569 436.44 91.1769 436.584C90.6969 436.712 90.2729 436.936 89.9049 437.256C89.5369 437.576 89.2409 438.008 89.0169 438.552C88.7929 439.096 88.6809 439.776 88.6809 440.592V447H87.0009ZM99.5368 447.288C98.5608 447.288 97.7448 447.112 97.0888 446.76C96.4488 446.408 95.9688 445.952 95.6488 445.392C95.3448 444.832 95.1928 444.216 95.1928 443.544C95.1928 442.712 95.4008 442.008 95.8168 441.432C96.2488 440.856 96.8488 440.424 97.6168 440.136C98.4008 439.848 99.2968 439.704 100.305 439.704H103.569C103.569 438.92 103.449 438.256 103.209 437.712C102.969 437.168 102.617 436.76 102.153 436.488C101.705 436.2 101.129 436.056 100.425 436.056C99.5928 436.056 98.8808 436.264 98.2888 436.68C97.6968 437.096 97.3288 437.704 97.1848 438.504H95.4328C95.5288 437.656 95.8168 436.944 96.2968 436.368C96.7928 435.792 97.4008 435.36 98.1208 435.072C98.8568 434.768 99.6248 434.616 100.425 434.616C101.529 434.616 102.433 434.832 103.137 435.264C103.857 435.68 104.385 436.256 104.721 436.992C105.073 437.728 105.249 438.576 105.249 439.536V447H103.713L103.641 444.792C103.481 445.128 103.273 445.448 103.017 445.752C102.777 446.056 102.489 446.32 102.153 446.544C101.833 446.768 101.457 446.944 101.025 447.072C100.593 447.216 100.097 447.288 99.5368 447.288ZM99.7288 445.8C100.337 445.8 100.873 445.68 101.337 445.44C101.801 445.2 102.201 444.88 102.537 444.48C102.873 444.08 103.129 443.624 103.305 443.112C103.481 442.6 103.569 442.08 103.569 441.552V441.12H100.425C99.5768 441.12 98.8968 441.224 98.3848 441.432C97.8728 441.64 97.5048 441.92 97.2808 442.272C97.0568 442.624 96.9448 443.032 96.9448 443.496C96.9448 443.96 97.0488 444.368 97.2568 444.72C97.4808 445.056 97.8008 445.32 98.2168 445.512C98.6328 445.704 99.1368 445.8 99.7288 445.8ZM108.423 447V434.904H109.959L110.055 437.064C110.439 436.296 110.991 435.696 111.711 435.264C112.447 434.832 113.263 434.616 114.159 434.616C115.087 434.616 115.895 434.8 116.583 435.168C117.271 435.536 117.807 436.096 118.191 436.848C118.575 437.584 118.767 438.528 118.767 439.68V447H117.087V439.872C117.087 438.592 116.807 437.64 116.247 437.016C115.687 436.392 114.895 436.08 113.871 436.08C113.151 436.08 112.503 436.256 111.927 436.608C111.367 436.944 110.919 437.44 110.583 438.096C110.263 438.752 110.103 439.56 110.103 440.52V447H108.423ZM127.25 447.288C126.066 447.288 125.034 447.016 124.154 446.472C123.29 445.912 122.618 445.152 122.138 444.192C121.658 443.232 121.418 442.144 121.418 440.928C121.418 439.712 121.658 438.632 122.138 437.688C122.618 436.728 123.298 435.976 124.178 435.432C125.058 434.888 126.09 434.616 127.274 434.616C128.282 434.616 129.17 434.84 129.938 435.288C130.722 435.72 131.322 436.336 131.738 437.136V429.72H133.418V447H131.882L131.738 444.816C131.498 445.232 131.17 445.632 130.754 446.016C130.338 446.4 129.834 446.712 129.242 446.952C128.666 447.176 128.002 447.288 127.25 447.288ZM127.37 445.824C128.218 445.824 128.954 445.624 129.578 445.224C130.218 444.808 130.722 444.24 131.09 443.52C131.458 442.784 131.642 441.928 131.642 440.952C131.642 439.976 131.458 439.12 131.09 438.384C130.722 437.648 130.218 437.08 129.578 436.68C128.954 436.28 128.218 436.08 127.37 436.08C126.554 436.08 125.818 436.28 125.162 436.68C124.522 437.08 124.018 437.648 123.65 438.384C123.298 439.104 123.122 439.96 123.122 440.952C123.122 441.944 123.306 442.808 123.674 443.544C124.042 444.264 124.546 444.824 125.186 445.224C125.826 445.624 126.554 445.824 127.37 445.824ZM143.606 447V430.2H145.286V447H143.606ZM154.156 447.288C152.972 447.288 151.94 447.016 151.06 446.472C150.196 445.912 149.524 445.152 149.044 444.192C148.564 443.232 148.324 442.144 148.324 440.928C148.324 439.712 148.564 438.632 149.044 437.688C149.524 436.728 150.204 435.976 151.084 435.432C151.964 434.888 152.996 434.616 154.18 434.616C155.188 434.616 156.076 434.84 156.844 435.288C157.628 435.72 158.228 436.336 158.644 437.136V429.72H160.324V447H158.788L158.644 444.816C158.404 445.232 158.076 445.632 157.66 446.016C157.244 446.4 156.74 446.712 156.148 446.952C155.572 447.176 154.908 447.288 154.156 447.288ZM154.276 445.824C155.124 445.824 155.86 445.624 156.484 445.224C157.124 444.808 157.628 444.24 157.996 443.52C158.364 442.784 158.548 441.928 158.548 440.952C158.548 439.976 158.364 439.12 157.996 438.384C157.628 437.648 157.124 437.08 156.484 436.68C155.86 436.28 155.124 436.08 154.276 436.08C153.46 436.08 152.724 436.28 152.068 436.68C151.428 437.08 150.924 437.648 150.556 438.384C150.204 439.104 150.028 439.96 150.028 440.952C150.028 441.944 150.212 442.808 150.58 443.544C150.948 444.264 151.452 444.824 152.092 445.224C152.732 445.624 153.46 445.824 154.276 445.824ZM168.919 447.288C167.799 447.288 166.807 447.024 165.943 446.496C165.095 445.968 164.423 445.232 163.927 444.288C163.447 443.328 163.207 442.208 163.207 440.928C163.207 439.648 163.447 438.536 163.927 437.592C164.407 436.648 165.079 435.92 165.943 435.408C166.823 434.88 167.831 434.616 168.967 434.616C170.135 434.616 171.127 434.88 171.943 435.408C172.759 435.936 173.375 436.624 173.791 437.472C174.223 438.32 174.439 439.248 174.439 440.256C174.439 440.416 174.439 440.584 174.439 440.76C174.439 440.92 174.431 441.112 174.415 441.336H164.479V439.92H172.807C172.759 438.688 172.367 437.736 171.631 437.064C170.911 436.392 169.999 436.056 168.895 436.056C168.191 436.056 167.527 436.224 166.903 436.56C166.279 436.88 165.775 437.36 165.391 438C165.023 438.624 164.839 439.416 164.839 440.376V441C164.839 442.088 165.031 442.992 165.415 443.712C165.815 444.432 166.327 444.968 166.951 445.32C167.575 445.672 168.231 445.848 168.919 445.848C169.831 445.848 170.583 445.648 171.175 445.248C171.767 444.832 172.191 444.264 172.447 443.544H174.103C173.911 444.248 173.583 444.888 173.119 445.464C172.655 446.024 172.071 446.472 171.367 446.808C170.663 447.128 169.847 447.288 168.919 447.288ZM177.165 447V434.904H178.701L178.797 437.064C179.181 436.296 179.733 435.696 180.453 435.264C181.189 434.832 182.005 434.616 182.901 434.616C183.829 434.616 184.637 434.8 185.325 435.168C186.013 435.536 186.549 436.096 186.933 436.848C187.317 437.584 187.509 438.528 187.509 439.68V447H185.829V439.872C185.829 438.592 185.549 437.64 184.989 437.016C184.429 436.392 183.637 436.08 182.613 436.08C181.893 436.08 181.245 436.256 180.669 436.608C180.109 436.944 179.661 437.44 179.325 438.096C179.005 438.752 178.845 439.56 178.845 440.52V447H177.165ZM195.272 447C194.584 447 193.992 446.896 193.496 446.688C193 446.464 192.616 446.104 192.344 445.608C192.088 445.096 191.96 444.4 191.96 443.52V436.344H189.848V434.904H191.96L192.2 432.096H193.64V434.928H197.264V436.344H193.64V443.52C193.64 444.32 193.8 444.864 194.12 445.152C194.44 445.424 195.008 445.56 195.824 445.56H197.072V447H195.272ZM200.116 447V434.904H201.796V447H200.116ZM200.956 432.048C200.62 432.048 200.332 431.936 200.092 431.712C199.852 431.472 199.732 431.176 199.732 430.824C199.732 430.456 199.844 430.168 200.068 429.96C200.308 429.736 200.604 429.624 200.956 429.624C201.276 429.624 201.556 429.736 201.796 429.96C202.036 430.168 202.156 430.456 202.156 430.824C202.156 431.176 202.036 431.472 201.796 431.712C201.572 431.936 201.292 432.048 200.956 432.048ZM210.015 447C209.327 447 208.735 446.896 208.239 446.688C207.743 446.464 207.359 446.104 207.087 445.608C206.831 445.096 206.703 444.4 206.703 443.52V436.344H204.591V434.904H206.703L206.943 432.096H208.383V434.928H212.007V436.344H208.383V443.52C208.383 444.32 208.543 444.864 208.863 445.152C209.183 445.424 209.751 445.56 210.567 445.56H211.815V447H210.015ZM215.866 452.28L218.842 445.656H218.194L213.418 434.904H215.242L219.37 444.504L223.714 434.904H225.442L217.618 452.28H215.866ZM238.146 447.288C237.17 447.288 236.354 447.112 235.698 446.76C235.058 446.408 234.578 445.952 234.258 445.392C233.954 444.832 233.802 444.216 233.802 443.544C233.802 442.712 234.01 442.008 234.426 441.432C234.858 440.856 235.458 440.424 236.226 440.136C237.01 439.848 237.906 439.704 238.914 439.704H242.178C242.178 438.92 242.058 438.256 241.818 437.712C241.578 437.168 241.226 436.76 240.762 436.488C240.314 436.2 239.738 436.056 239.034 436.056C238.202 436.056 237.49 436.264 236.898 436.68C236.306 437.096 235.938 437.704 235.794 438.504H234.042C234.138 437.656 234.426 436.944 234.906 436.368C235.402 435.792 236.01 435.36 236.73 435.072C237.466 434.768 238.234 434.616 239.034 434.616C240.138 434.616 241.042 434.832 241.746 435.264C242.466 435.68 242.994 436.256 243.33 436.992C243.682 437.728 243.858 438.576 243.858 439.536V447H242.322L242.25 444.792C242.09 445.128 241.882 445.448 241.626 445.752C241.386 446.056 241.098 446.32 240.762 446.544C240.442 446.768 240.066 446.944 239.634 447.072C239.202 447.216 238.706 447.288 238.146 447.288ZM238.338 445.8C238.946 445.8 239.482 445.68 239.946 445.44C240.41 445.2 240.81 444.88 241.146 444.48C241.482 444.08 241.738 443.624 241.914 443.112C242.09 442.6 242.178 442.08 242.178 441.552V441.12H239.034C238.186 441.12 237.506 441.224 236.994 441.432C236.482 441.64 236.114 441.92 235.89 442.272C235.666 442.624 235.554 443.032 235.554 443.496C235.554 443.96 235.658 444.368 235.866 444.72C236.09 445.056 236.41 445.32 236.826 445.512C237.242 445.704 237.746 445.8 238.338 445.8ZM247.032 447V434.904H248.568L248.664 437.064C249.048 436.296 249.6 435.696 250.32 435.264C251.056 434.832 251.872 434.616 252.768 434.616C253.696 434.616 254.504 434.8 255.192 435.168C255.88 435.536 256.416 436.096 256.8 436.848C257.184 437.584 257.376 438.528 257.376 439.68V447H255.696V439.872C255.696 438.592 255.416 437.64 254.856 437.016C254.296 436.392 253.504 436.08 252.48 436.08C251.76 436.08 251.112 436.256 250.536 436.608C249.976 436.944 249.528 437.44 249.192 438.096C248.872 438.752 248.712 439.56 248.712 440.52V447H247.032ZM265.86 447.288C264.676 447.288 263.644 447.016 262.764 446.472C261.9 445.912 261.228 445.152 260.748 444.192C260.268 443.232 260.028 442.144 260.028 440.928C260.028 439.712 260.268 438.632 260.748 437.688C261.228 436.728 261.908 435.976 262.788 435.432C263.668 434.888 264.7 434.616 265.884 434.616C266.892 434.616 267.78 434.84 268.548 435.288C269.332 435.72 269.932 436.336 270.348 437.136V429.72H272.028V447H270.492L270.348 444.816C270.108 445.232 269.78 445.632 269.364 446.016C268.948 446.4 268.444 446.712 267.852 446.952C267.276 447.176 266.612 447.288 265.86 447.288ZM265.98 445.824C266.828 445.824 267.564 445.624 268.188 445.224C268.828 444.808 269.332 444.24 269.7 443.52C270.068 442.784 270.252 441.928 270.252 440.952C270.252 439.976 270.068 439.12 269.7 438.384C269.332 437.648 268.828 437.08 268.188 436.68C267.564 436.28 266.828 436.08 265.98 436.08C265.164 436.08 264.428 436.28 263.772 436.68C263.132 437.08 262.628 437.648 262.26 438.384C261.908 439.104 261.732 439.96 261.732 440.952C261.732 441.944 261.916 442.808 262.284 443.544C262.652 444.264 263.156 444.824 263.796 445.224C264.436 445.624 265.164 445.824 265.98 445.824ZM287.448 447.288C286.216 447.288 285.144 447.064 284.232 446.616C283.336 446.168 282.648 445.544 282.168 444.744C281.688 443.928 281.448 443 281.448 441.96H283.2C283.2 442.664 283.36 443.312 283.68 443.904C284 444.496 284.472 444.976 285.096 445.344C285.72 445.696 286.504 445.872 287.448 445.872C288.28 445.872 288.976 445.736 289.536 445.464C290.112 445.176 290.552 444.8 290.856 444.336C291.16 443.872 291.312 443.344 291.312 442.752C291.312 442.048 291.16 441.48 290.856 441.048C290.568 440.616 290.168 440.264 289.656 439.992C289.144 439.72 288.56 439.488 287.904 439.296C287.264 439.088 286.584 438.864 285.864 438.624C284.568 438.176 283.616 437.624 283.008 436.968C282.4 436.312 282.088 435.472 282.072 434.448C282.072 433.568 282.272 432.792 282.672 432.12C283.088 431.432 283.688 430.896 284.472 430.512C285.256 430.112 286.184 429.912 287.256 429.912C288.296 429.912 289.2 430.112 289.968 430.512C290.752 430.896 291.36 431.44 291.792 432.144C292.224 432.832 292.44 433.624 292.44 434.52H290.712C290.712 434.008 290.576 433.512 290.304 433.032C290.048 432.536 289.656 432.136 289.128 431.832C288.616 431.512 287.96 431.352 287.16 431.352C286.504 431.352 285.92 431.472 285.408 431.712C284.912 431.936 284.52 432.272 284.232 432.72C283.944 433.152 283.8 433.664 283.8 434.256C283.8 434.832 283.928 435.304 284.184 435.672C284.44 436.04 284.8 436.344 285.264 436.584C285.728 436.824 286.272 437.048 286.896 437.256C287.52 437.448 288.216 437.672 288.984 437.928C289.768 438.2 290.464 438.528 291.072 438.912C291.68 439.296 292.16 439.792 292.512 440.4C292.864 440.992 293.04 441.744 293.04 442.656C293.04 443.44 292.832 444.184 292.416 444.888C292.016 445.592 291.4 446.168 290.568 446.616C289.736 447.064 288.696 447.288 287.448 447.288ZM300.46 447C299.772 447 299.18 446.896 298.684 446.688C298.188 446.464 297.804 446.104 297.532 445.608C297.276 445.096 297.148 444.4 297.148 443.52V436.344H295.036V434.904H297.148L297.388 432.096H298.828V434.928H302.452V436.344H298.828V443.52C298.828 444.32 298.988 444.864 299.308 445.152C299.628 445.424 300.196 445.56 301.012 445.56H302.26V447H300.46ZM305.063 447V434.904H306.599L306.719 437.232C306.975 436.672 307.319 436.2 307.751 435.816C308.183 435.432 308.703 435.136 309.311 434.928C309.919 434.72 310.607 434.616 311.375 434.616V436.368H310.727C310.215 436.368 309.719 436.44 309.239 436.584C308.759 436.712 308.335 436.936 307.967 437.256C307.599 437.576 307.303 438.008 307.079 438.552C306.855 439.096 306.743 439.776 306.743 440.592V447H305.063ZM317.599 447.288C316.623 447.288 315.807 447.112 315.151 446.76C314.511 446.408 314.031 445.952 313.711 445.392C313.407 444.832 313.255 444.216 313.255 443.544C313.255 442.712 313.463 442.008 313.879 441.432C314.311 440.856 314.911 440.424 315.679 440.136C316.463 439.848 317.359 439.704 318.367 439.704H321.631C321.631 438.92 321.511 438.256 321.271 437.712C321.031 437.168 320.679 436.76 320.215 436.488C319.767 436.2 319.191 436.056 318.487 436.056C317.655 436.056 316.943 436.264 316.351 436.68C315.759 437.096 315.391 437.704 315.247 438.504H313.495C313.591 437.656 313.879 436.944 314.359 436.368C314.855 435.792 315.463 435.36 316.183 435.072C316.919 434.768 317.687 434.616 318.487 434.616C319.591 434.616 320.495 434.832 321.199 435.264C321.919 435.68 322.447 436.256 322.783 436.992C323.135 437.728 323.311 438.576 323.311 439.536V447H321.775L321.703 444.792C321.543 445.128 321.335 445.448 321.079 445.752C320.839 446.056 320.551 446.32 320.215 446.544C319.895 446.768 319.519 446.944 319.087 447.072C318.655 447.216 318.159 447.288 317.599 447.288ZM317.791 445.8C318.399 445.8 318.935 445.68 319.399 445.44C319.863 445.2 320.263 444.88 320.599 444.48C320.935 444.08 321.191 443.624 321.367 443.112C321.543 442.6 321.631 442.08 321.631 441.552V441.12H318.487C317.639 441.12 316.959 441.224 316.447 441.432C315.935 441.64 315.567 441.92 315.343 442.272C315.119 442.624 315.007 443.032 315.007 443.496C315.007 443.96 315.111 444.368 315.319 444.72C315.543 445.056 315.863 445.32 316.279 445.512C316.695 445.704 317.199 445.8 317.791 445.8ZM330.694 447C330.006 447 329.414 446.896 328.918 446.688C328.422 446.464 328.038 446.104 327.766 445.608C327.51 445.096 327.382 444.4 327.382 443.52V436.344H325.27V434.904H327.382L327.622 432.096H329.062V434.928H332.686V436.344H329.062V443.52C329.062 444.32 329.222 444.864 329.542 445.152C329.862 445.424 330.43 445.56 331.246 445.56H332.494V447H330.694ZM340.154 447.288C339.034 447.288 338.042 447.024 337.178 446.496C336.33 445.968 335.658 445.232 335.162 444.288C334.682 443.328 334.442 442.208 334.442 440.928C334.442 439.648 334.682 438.536 335.162 437.592C335.642 436.648 336.314 435.92 337.178 435.408C338.058 434.88 339.066 434.616 340.202 434.616C341.37 434.616 342.362 434.88 343.178 435.408C343.994 435.936 344.61 436.624 345.026 437.472C345.458 438.32 345.674 439.248 345.674 440.256C345.674 440.416 345.674 440.584 345.674 440.76C345.674 440.92 345.666 441.112 345.65 441.336H335.714V439.92H344.042C343.994 438.688 343.602 437.736 342.866 437.064C342.146 436.392 341.234 436.056 340.13 436.056C339.426 436.056 338.762 436.224 338.138 436.56C337.514 436.88 337.01 437.36 336.626 438C336.258 438.624 336.074 439.416 336.074 440.376V441C336.074 442.088 336.266 442.992 336.65 443.712C337.05 444.432 337.562 444.968 338.186 445.32C338.81 445.672 339.466 445.848 340.154 445.848C341.066 445.848 341.818 445.648 342.41 445.248C343.002 444.832 343.426 444.264 343.682 443.544H345.338C345.146 444.248 344.818 444.888 344.354 445.464C343.89 446.024 343.306 446.472 342.602 446.808C341.898 447.128 341.082 447.288 340.154 447.288ZM353.079 452.568C352.007 452.568 351.055 452.424 350.223 452.136C349.407 451.848 348.759 451.416 348.279 450.84C347.815 450.264 347.583 449.552 347.583 448.704C347.583 448.368 347.639 448 347.751 447.6C347.879 447.216 348.119 446.824 348.471 446.424C348.823 446.024 349.319 445.664 349.959 445.344L351.327 445.944C350.479 446.344 349.927 446.776 349.671 447.24C349.415 447.72 349.287 448.152 349.287 448.536C349.287 449.112 349.447 449.592 349.767 449.976C350.103 450.36 350.551 450.648 351.111 450.84C351.687 451.032 352.343 451.128 353.079 451.128C353.815 451.128 354.447 451.024 354.975 450.816C355.519 450.608 355.935 450.304 356.223 449.904C356.511 449.52 356.655 449.072 356.655 448.56C356.655 447.968 356.423 447.464 355.959 447.048C355.511 446.648 354.671 446.416 353.439 446.352C352.463 446.288 351.655 446.208 351.015 446.112C350.391 446 349.871 445.872 349.455 445.728C349.055 445.568 348.719 445.4 348.447 445.224C348.191 445.048 347.943 444.856 347.703 444.648V444.096L350.007 441.912L351.543 442.464L349.287 444.48L349.431 443.832C349.623 443.96 349.799 444.08 349.959 444.192C350.119 444.304 350.335 444.4 350.607 444.48C350.895 444.544 351.287 444.616 351.783 444.696C352.295 444.76 352.983 444.824 353.847 444.888C354.951 444.968 355.831 445.16 356.487 445.464C357.143 445.768 357.623 446.176 357.927 446.688C358.231 447.2 358.383 447.8 358.383 448.488C358.383 449.176 358.191 449.824 357.807 450.432C357.439 451.056 356.863 451.568 356.079 451.968C355.311 452.368 354.311 452.568 353.079 452.568ZM353.055 443.16C352.031 443.16 351.167 442.968 350.463 442.584C349.775 442.2 349.247 441.688 348.879 441.048C348.511 440.392 348.327 439.672 348.327 438.888C348.327 438.088 348.511 437.368 348.879 436.728C349.247 436.088 349.783 435.576 350.487 435.192C351.191 434.808 352.047 434.616 353.055 434.616C354.079 434.616 354.935 434.808 355.623 435.192C356.327 435.576 356.855 436.088 357.207 436.728C357.575 437.368 357.759 438.088 357.759 438.888C357.759 439.672 357.575 440.392 357.207 441.048C356.855 441.688 356.327 442.2 355.623 442.584C354.935 442.968 354.079 443.16 353.055 443.16ZM353.055 441.72C353.983 441.72 354.711 441.48 355.239 441C355.783 440.504 356.055 439.8 356.055 438.888C356.055 437.96 355.783 437.256 355.239 436.776C354.711 436.296 353.983 436.056 353.055 436.056C352.127 436.056 351.383 436.296 350.823 436.776C350.279 437.256 350.007 437.96 350.007 438.888C350.007 439.8 350.279 440.504 350.823 441C351.367 441.48 352.111 441.72 353.055 441.72ZM355.023 436.416L354.423 434.904H359.319V436.272L355.023 436.416ZM362.89 452.28L365.866 445.656H365.218L360.442 434.904H362.266L366.394 444.504L370.738 434.904H372.466L364.642 452.28H362.89Z" fill="#FDFFFC"/>
<circle cx="89" cy="478" r="16" fill="#34A18C"/>
<rect x="87.3135" y="461" width="25.0122" height="24.4853" rx="12.2426" transform="rotate(45 87.3135 461)" fill="#34A18C"/>
<path d="M93.2712 472.729L93.2818 471.729L94.2607 471.739L94.2711 472.718L93.2712 472.729ZM83.1572 484.257C82.7667 484.647 82.1335 484.647 81.743 484.257C81.3525 483.866 81.3525 483.233 81.743 482.843L83.1572 484.257ZM84.5318 471.636L93.2818 471.729L93.2605 473.729L84.5105 473.635L84.5318 471.636ZM94.2711 472.718L94.3643 481.468L92.3644 481.489L92.2712 472.739L94.2711 472.718ZM93.9783 473.436L83.1572 484.257L81.743 482.843L92.5641 472.022L93.9783 473.436Z" fill="#FDFFFC"/>
</g>
<defs>
<clipPath id="clip0_362_1240">
<rect width="1120" height="540" rx="32" fill="white"/>
</clipPath>
</defs>
</svg>
