<svg width="104" height="104" viewBox="0 0 104 104" fill="none" xmlns="http://www.w3.org/2000/svg">
<path d="M51.6893 99.3786C78.0274 99.3786 99.3786 78.0274 99.3786 51.6893C99.3786 25.3512 78.0274 4 51.6893 4C25.3512 4 4 25.3512 4 51.6893C4 78.0274 25.3512 99.3786 51.6893 99.3786Z" fill="#02040F" stroke="#09444A" stroke-width="8"/>
<path d="M64.2188 36.9834L64.2188 35.9834L65.2188 35.9834L65.2188 36.9834L64.2188 36.9834ZM40.2115 62.4049C39.8209 62.7955 39.1878 62.7955 38.7973 62.4049C38.4067 62.0144 38.4067 61.3813 38.7973 60.9907L40.2115 62.4049ZM44.4472 35.9834L64.2188 35.9834L64.2188 37.9834L44.4472 37.9834L44.4472 35.9834ZM65.2188 36.9834L65.2188 56.755L63.2188 56.7549L63.2188 36.9834L65.2188 36.9834ZM64.9259 37.6905L40.2115 62.4049L38.7973 60.9907L63.5117 36.2763L64.9259 37.6905Z" fill="#FDFFFC"/>
</svg>
