<svg width="42" height="268" viewBox="0 0 42 268" fill="none" xmlns="http://www.w3.org/2000/svg">
<line x1="21" y1="18" x2="21" y2="258" stroke="#34A18C" stroke-width="2" stroke-dasharray="6 6"/>
<rect x="1" y="220" width="40" height="40" rx="20" fill="#FDFFFC"/>
<rect x="1" y="220" width="40" height="40" rx="20" stroke="#34A18C" stroke-width="2" stroke-linecap="round" stroke-linejoin="round" stroke-dasharray="7 7"/>
<circle cx="21" cy="240" r="16" fill="#02040F"/>
<rect x="1" y="1" width="40" height="40" rx="20" fill="#FDFFFC"/>
<rect x="1" y="1" width="40" height="40" rx="20" stroke="#34A18C" stroke-width="2" stroke-linecap="round" stroke-linejoin="round" stroke-dasharray="7 7"/>
<circle cx="21" cy="21" r="16" fill="#02040F"/>
<rect x="1" y="147" width="40" height="40" rx="20" fill="#FDFFFC"/>
<rect x="1" y="147" width="40" height="40" rx="20" stroke="#34A18C" stroke-width="2" stroke-linecap="round" stroke-linejoin="round" stroke-dasharray="7 7"/>
<path d="M37 167C37 175.837 29.8366 183 21 183C12.1634 183 5 175.837 5 167C5 158.163 12.1634 151 21 151C29.8366 151 37 158.163 37 167Z" fill="#02040F"/>
<rect x="1" y="74" width="40" height="40" rx="20" fill="#FDFFFC"/>
<rect x="1" y="74" width="40" height="40" rx="20" stroke="#34A18C" stroke-width="2" stroke-linecap="round" stroke-linejoin="round" stroke-dasharray="7 7"/>
<circle cx="21" cy="94" r="16" fill="#02040F"/>
</svg>
