<svg width="128" height="30" viewBox="0 0 128 30" fill="none" xmlns="http://www.w3.org/2000/svg">
<rect x="31.6553" y="8.41504" width="17.7013" height="5.3104" transform="rotate(-25 31.6553 8.41504)" fill="#34A18C"/>
<rect x="39.5312" y="25.2349" width="2.66408" height="5.31039" transform="rotate(-115.149 39.5312 25.2349)" fill="#34A18C"/>
<rect x="36.1357" y="18.02" width="30.9773" height="5.3104" transform="rotate(-25 36.1357 18.02)" fill="#34A18C"/>
<rect x="48.3564" y="23.2979" width="22.1266" height="5.3104" transform="rotate(-25 48.3564 23.2979)" fill="#34A18C"/>
<rect x="80.2246" y="13.3481" width="18.0343" height="5.45995" transform="rotate(-45 80.2246 13.3481)" fill="#09444A"/>
<rect x="84.0864" y="12.1953" width="18.2743" height="5.45995" transform="rotate(45 84.0864 12.1953)" fill="#09444A"/>
<rect x="80.2217" y="16.0718" width="2.7391" height="5.45995" transform="rotate(-90.7567 80.2217 16.0718)" fill="#09444A"/>
<path d="M92.9648 2.98171V0.592986L100.643 0.592986L96.8323 4.46045L92.9648 2.98171Z" fill="#09444A"/>
<path d="M93.1924 26.6413V29.0301H100.87L97.0598 25.1626L93.1924 26.6413Z" fill="#09444A"/>
<rect x="74.7646" y="28.916" width="28.3235" height="5.45995" transform="rotate(-90 74.7646 28.916)" fill="#09444A"/>
<path d="M128.001 14.7545C128.001 22.5758 121.66 28.9163 113.839 28.9163C106.018 28.9163 99.6772 22.5758 99.6772 14.7545C99.6772 6.9332 106.018 0.592773 113.839 0.592773C121.66 0.592773 128.001 6.9332 128.001 14.7545ZM104.79 14.7545C104.79 19.7523 108.841 23.8039 113.839 23.8039C118.837 23.8039 122.888 19.7523 122.888 14.7545C122.888 9.75669 118.837 5.70516 113.839 5.70516C108.841 5.70516 104.79 9.75669 104.79 14.7545Z" fill="#09444A"/>
<rect x="21.417" y="14.3564" width="13.7636" height="5.45995" transform="rotate(-90 21.417 14.3564)" fill="#09444A"/>
<path d="M26.8363 13.8321C27.1318 16.8619 26.4431 19.9063 24.8724 22.5139C23.3016 25.1215 20.9325 27.1536 18.1161 28.3089C15.2996 29.4642 12.2222 29.6527 9.27272 28.8992C5.63816 27.5762 2.5199 25.1746 0.0358077 20.6953L5.94267 20.7196C7.12771 22.181 8.75212 23.2217 10.5751 23.6874C12.3981 24.1531 14.3226 24.0189 16.0634 23.3048C17.8041 22.5908 19.2685 21.3348 20.2393 19.7231C21.2102 18.1114 21.6358 16.2297 21.4532 14.3571L26.8363 13.8321Z" fill="#09444A"/>
</svg>
